<?xml version="1.0" encoding="UTF-8"?> <svg xmlns="http://www.w3.org/2000/svg" width="140" height="140" viewBox="0 0 140 140" fill="none"> <path fill-rule="evenodd" clip-rule="evenodd" d="M84.9392 55.1026L75.6213 57.2386L67.3992 75.2618L78.355 71.1522L82.5618 89.3784L73.4286 91.2626L75.5744 101.223L103.613 95.2392L100.447 84.3522L92.2545 86.2303L84.9392 55.1026ZM70.2701 72.5828L76.6786 58.5351L83.8202 56.898L91.1355 88.0257L99.4023 86.1307L101.723 94.109L76.7255 99.4439L75.2136 92.426L84.3687 90.5372L79.4314 69.1463L70.2701 72.5828Z" fill="white"></path> <path fill-rule="evenodd" clip-rule="evenodd" d="M88.8221 23.8511L88.5916 23.7178L88.3286 23.7597C79.4921 25.1675 65.3403 27.6073 51.597 30.3524C37.8729 33.0936 24.495 36.151 17.2434 38.7994L16.6543 39.0146L16.7618 39.6324C19.9131 57.7515 26.4115 94.9648 27.1709 98.7288C27.334 99.5374 27.9244 100.343 28.6601 101.098C29.4179 101.877 30.4285 102.7 31.5905 103.54C33.9168 105.221 36.9324 107.025 39.9533 108.728C42.2296 110.011 44.5252 111.246 46.5456 112.332L46.547 112.333L46.5509 112.335C47.2114 112.69 47.8425 113.03 48.4338 113.35C49.6381 114.002 50.674 114.572 51.4658 115.035C52.2914 115.519 52.7626 115.838 52.9186 115.992C52.9812 116.054 53.1373 116.196 53.3814 116.238C53.5669 116.271 53.735 116.236 53.8742 116.167C68.2652 114.564 101.634 109.767 122.728 103.046L123.289 102.867L123.249 102.28C122.774 95.3807 121.589 83.9624 119.575 72.1048C117.562 60.2612 114.713 47.9175 110.89 39.2027L110.817 39.036L110.676 38.9214C107.188 36.0928 97.948 29.1283 88.8221 23.8511ZM121.711 101.794C101.052 108.277 68.9342 112.948 54.3603 114.603C54.3509 114.45 54.3375 114.286 54.3211 114.114C54.2236 113.089 53.9965 111.538 53.672 109.595C53.0216 105.702 51.9673 100.166 50.7294 93.9563C48.3181 81.8599 45.2044 67.1789 43.0043 57.035C43.0835 57.0224 43.1654 57.0089 43.2496 56.9945C43.7537 56.9085 44.3983 56.7828 45.1649 56.6226C46.6989 56.302 48.7428 55.8388 51.1709 55.2668C56.0285 54.1226 62.4416 52.5391 69.427 50.7806C83.1306 47.3308 99.0479 43.2046 109.77 40.3929C113.39 48.8983 116.133 60.8064 118.096 72.3561C120.045 83.8287 121.214 94.8896 121.711 101.794ZM40.1444 56.5716C40.6064 56.7809 41.06 56.9559 41.4732 57.0524C43.6757 67.2009 46.8254 82.0445 49.2584 94.2495C50.4957 100.457 51.5462 105.974 52.1925 109.842C52.4987 111.675 52.7115 113.122 52.8116 114.093C52.6272 113.979 52.43 113.862 52.2238 113.741C51.4082 113.263 50.3527 112.683 49.1478 112.031C48.549 111.707 47.9124 111.364 47.2478 111.007C45.2294 109.921 42.9526 108.697 40.6899 107.422C37.6804 105.725 34.7247 103.954 32.4691 102.324C31.3402 101.508 30.4071 100.742 29.7349 100.052C29.0406 99.3386 28.7146 98.7957 28.6413 98.4322C27.9134 94.8244 21.8395 60.0623 18.5807 41.3363C21.995 44.0662 26.591 47.6247 30.8271 50.6628C33.2851 52.4256 35.6336 54.0217 37.5651 55.18C38.5298 55.7585 39.4042 56.2362 40.1444 56.5716ZM31.7013 49.4438C27.2821 46.2745 22.4605 42.5288 19.0185 39.7649C26.3794 37.2646 38.9242 34.4133 51.8908 31.8233C65.4757 29.1098 79.4639 26.6946 88.3013 25.283C96.383 29.9806 104.535 35.9888 108.566 39.1578C97.8664 41.9612 82.4115 45.965 69.0608 49.326C62.0778 51.0839 55.6733 52.6652 50.827 53.8068C48.4033 54.3777 46.3737 54.8375 44.858 55.1543C44.0997 55.3128 43.4754 55.4343 42.9973 55.5159C42.4994 55.6008 42.2117 55.6329 42.0953 55.6329C41.8921 55.6329 41.4615 55.5216 40.7634 55.2053C40.097 54.9033 39.2775 54.4579 38.3366 53.8936C36.4567 52.7662 34.1464 51.1974 31.7013 49.4438Z" fill="white"></path> </svg> 