<svg width="579" height="335" viewBox="0 0 579 335" fill="none" xmlns="http://www.w3.org/2000/svg">
<path fill-rule="evenodd" clip-rule="evenodd" d="M53.7044 189.792C44.8169 205.75 41.7978 221.425 45.6878 235.933C49.5776 250.441 60.0343 262.507 75.7156 271.887C91.4004 281.268 112.277 287.939 136.912 291.654C186.179 299.083 250.35 294.671 317.738 276.626C385.124 258.581 442.906 230.337 481.855 199.285C501.331 183.758 516.073 167.548 524.963 151.586C533.851 135.628 536.869 119.953 532.98 105.445C529.089 90.937 518.633 78.8713 502.952 69.4916C487.267 60.1097 466.39 53.4387 441.755 49.7239C392.488 42.2946 328.316 46.7074 260.93 64.7522C193.543 82.7969 135.762 111.041 96.8117 142.093C77.3362 157.62 62.594 173.83 53.7044 189.792ZM96.0199 141.101C135.136 109.917 193.088 81.6055 260.602 63.5264C328.115 45.4475 392.468 41.0082 441.945 48.4692C466.683 52.1996 487.733 58.9094 503.604 68.4028C519.479 77.8983 530.207 90.2021 534.206 105.117C538.205 120.032 535.07 136.048 526.072 152.203C517.078 168.355 502.204 184.685 482.647 200.277C443.532 231.461 385.58 259.772 318.065 277.851C250.552 295.931 186.199 300.37 136.723 292.908C111.985 289.179 90.9346 282.469 75.0634 272.976C59.1887 263.48 48.4601 251.175 44.4612 236.261C40.4623 221.346 43.5977 205.33 52.5949 189.175C61.5901 173.023 76.4629 156.693 96.0199 141.101Z" fill="#AAAAAA"/>
<path d="M125.704 91.3633C125.944 108.083 139.448 121.578 156.178 121.818C139.448 122.058 125.944 135.553 125.704 152.272C125.464 135.553 111.96 122.058 95.2303 121.818C111.96 121.578 125.464 108.083 125.704 91.3633Z" fill="#F5F5F5"/>
<path fill-rule="evenodd" clip-rule="evenodd" d="M101.127 121.819C113.47 124.336 123.186 134.045 125.704 146.382C128.222 134.045 137.938 124.336 150.281 121.819C137.938 119.302 128.222 109.593 125.704 97.257C123.186 109.593 113.47 119.302 101.127 121.819ZM125.704 91.3645L125.069 91.3555C124.834 107.731 111.607 120.95 95.2212 121.185L95.2304 121.819L95.2212 122.453C111.607 122.688 124.834 135.906 125.069 152.283L125.704 152.273L126.339 152.283C126.574 135.906 139.801 122.688 156.187 122.453L156.178 121.819L156.187 121.185C139.801 120.95 126.574 107.731 126.339 91.3555L125.704 91.3645Z" fill="#AAAAAA"/>
</svg>
