<?xml version="1.0" encoding="UTF-8"?> <svg xmlns="http://www.w3.org/2000/svg" width="140" height="140" viewBox="0 0 140 140" fill="none"> <path d="M92.392 31.9848C92.392 33.5957 91.0861 34.9015 89.4753 34.9015C87.8645 34.9015 86.5586 33.5957 86.5586 31.9848C86.5586 30.374 87.8645 29.0682 89.4753 29.0682C91.0861 29.0682 92.392 30.374 92.392 31.9848Z" fill="white"></path> <path d="M69.6433 32.5685C71.2541 32.5685 72.5599 31.2627 72.5599 29.6518C72.5599 28.041 71.2541 26.7352 69.6433 26.7352C68.0324 26.7352 66.7266 28.041 66.7266 29.6518C66.7266 31.2627 68.0324 32.5685 69.6433 32.5685Z" fill="white"></path> <path d="M74.0289 54.5038C70.3945 53.3811 67.8693 50.4311 66.6437 48.0821L67.9736 47.3882C69.0813 49.5114 71.3394 52.1031 74.4717 53.0707C77.5372 54.0176 81.6449 53.4688 86.6375 48.9302L87.6465 50.0401C82.3723 54.8348 77.7301 55.6471 74.0289 54.5038Z" fill="white"></path> <path fill-rule="evenodd" clip-rule="evenodd" d="M70.7582 11.7496C70.1139 9.41594 68.6753 6.53683 66.168 4.66688C63.2854 2.5169 59.1396 1.8106 53.569 4.47481C50.0859 6.14063 47.9687 8.33696 46.8985 10.7745C45.8315 13.205 45.8431 15.7896 46.458 18.1724C47.0719 20.5514 48.294 22.7615 49.7013 24.4921C50.9262 25.9985 52.3418 27.2024 53.6862 27.8121C51.5315 32.4151 50.627 37.0627 51.0512 41.4209C51.3029 44.0063 52.0212 46.4757 53.2104 48.7587C48.7579 48.9132 40.3597 49.8705 34.3054 52.8977C30.1973 54.9517 26.0015 57.6321 23.5672 60.5229C22.3483 61.9702 21.508 63.5445 21.4231 65.178C21.3361 66.8523 22.049 68.4449 23.6391 69.876C25.0435 71.1399 27.209 71.4387 29.5677 71.2548C31.9617 71.068 34.7441 70.3689 37.5779 69.4169C42.1656 67.8759 46.9824 65.6396 50.6769 63.7013C50.3361 64.3872 49.9994 65.0858 49.6702 65.7935C47.2633 70.9685 45.2191 76.715 44.9783 81.5307C44.7278 86.5404 46.2327 90.4106 48.3788 93.3544C47.4963 95.6715 46.0913 99.0537 44.5724 102.119C43.7696 103.739 42.9419 105.256 42.1491 106.477C41.3395 107.723 40.6219 108.57 40.0596 108.944C39.5008 109.317 38.9666 109.703 38.4741 110.06L38.4731 110.06C38.1928 110.263 37.9259 110.456 37.6758 110.631C36.9582 111.133 36.3228 111.53 35.6763 111.789C34.4572 112.276 33.0788 112.323 30.8944 111.231C28.1896 109.879 25.0639 110.92 23.216 113.009C21.3249 115.147 20.6908 118.446 22.9446 121.665C25.1125 124.762 29.9454 127.898 35.0614 129.603C40.154 131.3 45.8683 131.691 49.6757 128.835C51.168 127.716 52.7232 125.914 54.2488 123.783C55.782 121.641 57.3176 119.121 58.7622 116.525C61.4779 111.645 63.8934 106.459 65.3919 102.93C66.6591 103.183 68.0223 103.411 69.4375 103.586C69.072 108.092 68.8729 114.774 69.4214 120.807C69.7057 123.934 70.1936 126.92 70.9786 129.348C71.7524 131.741 72.8655 133.754 74.5154 134.716C78.1864 136.857 82.724 137.447 86.7472 137.223C90.7521 137.001 94.4029 135.963 96.309 134.692C98.1731 133.449 100.644 130.685 101.431 127.697C101.831 126.177 101.806 124.547 100.98 123.043C100.157 121.544 98.5988 120.282 96.1563 119.366C92.6009 118.033 90.297 117.749 88.994 117.588C88.5843 117.538 88.2735 117.5 88.054 117.445C87.8294 117.389 87.7262 117.329 87.6606 117.272C87.5937 117.213 87.5053 117.102 87.4044 116.843C87.1846 116.278 87.0145 115.319 86.7161 113.528C85.8251 108.182 86.3093 103.121 86.6806 101.127C88.0251 100.252 89.1936 99.1356 90.1059 97.7256C93.4182 92.6067 94.6003 86.6172 94.6741 80.2644C94.6982 78.1926 94.6044 76.0759 94.4265 73.9309C95.6505 75.3132 97.2582 76.8616 99.1014 78.3208C101.829 80.4798 105.125 82.4861 108.519 83.456C110.647 84.0638 112.386 84.0958 113.743 83.6149C115.128 83.124 116.028 82.1287 116.499 80.8862C117.413 78.4782 116.725 75.1725 115.214 72.4539C113.406 69.1999 109.943 66.0589 106.408 63.5341C103.48 61.4418 100.435 59.7255 98.1068 58.6826C100.724 57.1878 102.833 55.2237 104.134 52.7519C107.065 47.184 110.586 38.4839 109.187 30.2524C109.178 30.2004 109.169 30.1484 109.16 30.0964C110.484 29.5457 111.937 28.4877 113.265 27.1494C114.893 25.5086 116.409 23.3703 117.334 21.0198C118.259 18.668 118.608 16.0609 117.826 13.5292C117.04 10.9853 115.145 8.62174 111.781 6.71165C109.101 5.19026 106.678 4.56678 104.517 4.60342C102.353 4.64011 100.499 5.33811 98.9618 6.38107C96.2683 8.20835 94.5402 11.0937 93.7042 13.403C91.1654 12.3952 88.2634 11.5309 84.958 10.8362C79.8787 9.76869 75.0448 10.2557 70.7582 11.7496ZM95.0897 13.9827C96.7683 14.723 98.2735 15.5308 99.6189 16.3972C100.063 15.6611 100.784 14.9675 101.654 14.5107C102.861 13.8772 104.42 13.6664 106.02 14.4616C107.421 15.1579 108.319 16.0346 108.768 17.031C109.22 18.0325 109.173 19.058 108.868 19.9596C108.566 20.8521 108.005 21.6438 107.381 22.2427C107.08 22.5314 106.748 22.7902 106.404 22.9969C107.556 24.7879 108.343 26.672 108.837 28.5998C109.847 28.1265 111.037 27.2657 112.2 26.0929C113.708 24.573 115.099 22.6022 115.938 20.4706C116.776 18.3404 117.048 16.0925 116.393 13.972C115.742 11.8635 114.142 9.77749 111.04 8.01606C108.546 6.60022 106.386 6.07195 104.542 6.1032C102.702 6.13441 101.128 6.72396 99.8039 7.62237C97.4073 9.24825 95.8342 11.8856 95.0897 13.9827ZM105.541 21.7634C105.793 21.6235 106.069 21.4222 106.343 21.16C106.826 20.6968 107.236 20.1035 107.447 19.4785C107.656 18.8626 107.667 18.2381 107.401 17.6475C107.132 17.0518 106.538 16.3943 105.352 15.8048C104.246 15.2552 103.199 15.3942 102.351 15.8389C101.658 16.2028 101.138 16.7515 100.861 17.2456C101.507 17.7143 102.111 18.198 102.675 18.6955C103.782 19.6717 104.732 20.6981 105.541 21.7634ZM97.1558 57.4956C99.662 56.1027 101.631 54.2875 102.807 52.0533C105.71 46.5379 109.019 38.219 107.708 30.5037C107.058 26.6752 105.267 22.9806 101.683 19.8206C98.0876 16.6506 92.6477 13.9851 84.6495 12.3041C73.5675 9.9751 63.6816 15.4978 58.5812 22.5097C53.994 28.8159 51.9719 35.3967 52.5442 41.2755C52.955 45.4964 54.7065 49.3993 57.8753 52.6262C58.1548 49.3356 59.3522 45.1409 62.1823 41.7429C65.51 37.7478 71.0177 34.9485 79.6414 35.9067C90.3133 37.0924 95.2903 41.2841 97.1747 46.1522C98.7276 50.1639 98.1029 54.4542 97.1558 57.4956ZM59.3099 53.9579C59.3504 50.785 60.3859 46.2436 63.3349 42.7029C65.3907 40.2347 68.4128 38.2082 72.7862 37.4937C72.7085 38.6706 73.1188 39.9117 73.7628 40.9919C74.6251 42.4383 75.9923 43.7526 77.5661 44.479C79.1538 45.2117 81.0083 45.3639 82.7189 44.3524C84.2578 43.4424 85.5528 41.6641 86.4515 38.8442C91.9082 40.6523 94.5857 43.6192 95.7759 46.6937C97.4052 50.9028 96.3601 55.5795 95.2368 58.4365C92.2666 59.718 88.7432 60.5068 84.9878 60.7991C76.9502 61.4245 68.1618 59.7416 62.2038 56.0533C61.1521 55.4023 60.1879 54.702 59.3099 53.9579ZM56.5759 53.44C55.6149 52.4317 54.7778 51.3612 54.0639 50.238C49.9988 50.2932 41.137 51.1589 34.9762 54.2393C30.9177 56.2686 26.9468 58.8382 24.7145 61.4891C23.6 62.8126 22.9821 64.082 22.9211 65.2558C22.8622 66.3888 23.316 67.5671 24.6426 68.761C25.5715 69.5971 27.1978 69.9351 29.4511 69.7593C31.6693 69.5863 34.3192 68.9292 37.1002 67.995C42.4317 66.2041 48.1119 63.4405 51.8893 61.3433C53.5858 58.1502 55.2835 55.3703 56.5759 53.44ZM57.6665 54.5086C58.7769 55.5255 60.026 56.4693 61.4143 57.3287C62.0421 57.7174 62.6981 58.0843 63.3787 58.4294C62.1703 60.5016 60.6594 64.0335 59.3797 67.7907C57.965 71.9443 56.7914 76.4929 56.6338 79.7826C56.4416 83.7958 56.789 86.4134 57.5984 88.2052C58.4342 90.0553 59.7249 90.9454 61.1622 91.5867C62.5777 92.2183 66.7076 93.513 71.0317 93.7969C75.2944 94.0768 80.1323 93.3949 82.4693 89.6249C84.6608 86.0896 85.65 81.3578 85.915 76.4192C86.1678 71.709 85.7654 66.7398 85.0644 62.2976L85.1042 62.2945C87.1864 62.1325 89.2346 61.8189 91.183 61.3453C92.3013 67.8331 93.2439 74.2521 93.1742 80.2469C93.1023 86.4357 91.951 92.113 88.8466 96.9107C85.8778 101.499 79.5672 102.693 73.1775 102.402C66.8476 102.115 60.8117 100.384 58.8561 99.5455C54.8214 97.8163 45.9186 92.7611 46.4764 81.6056C46.7023 77.088 48.6441 71.5567 51.0303 66.4261C51.6694 65.052 52.3375 63.7127 53.0083 62.4364L53.0934 62.3884L53.0625 62.3335C54.7161 59.1961 56.382 56.4465 57.6665 54.5086ZM92.638 60.9561C93.9415 60.5742 95.1898 60.1155 96.3615 59.5773C98.627 60.4508 102.146 62.3324 105.537 64.7546C109.014 67.2389 112.259 70.2229 113.903 73.1824C115.309 75.7139 115.788 78.5331 115.097 80.3543C114.766 81.2264 114.171 81.8717 113.242 82.2011C112.284 82.5405 110.887 82.5726 108.931 82.0137C105.793 81.1169 102.672 79.2343 100.032 77.1447C97.3935 75.0555 95.2887 72.802 94.1713 71.219L94.1617 71.2258C93.7821 67.833 93.2308 64.3882 92.638 60.9561ZM83.5598 62.387C77.0916 62.6597 70.2495 61.5285 64.7387 59.0756C63.6061 60.9817 62.098 64.4622 60.7996 68.2744C59.3965 72.3937 58.2793 76.7808 58.1321 79.8544C57.9433 83.7953 58.3042 86.1241 58.9654 87.5877C59.6003 88.9932 60.5425 89.6677 61.7734 90.2169C63.0318 90.7784 66.9884 92.0282 71.13 92.3002C75.3331 92.5762 79.3403 91.8255 81.1944 88.8345C83.194 85.6088 84.158 81.1687 84.4172 76.3388C84.6657 71.7082 84.263 66.7906 83.5598 62.387ZM54.3523 26.4669C53.2949 26.0009 52.0328 24.9818 50.8651 23.5458C49.5745 21.9586 48.4632 19.9395 47.9104 17.7975C47.3587 15.6593 47.3703 13.4313 48.272 11.3774C49.1707 9.33051 50.9909 7.37053 54.2162 5.82802C59.3789 3.35889 62.9137 4.11093 65.2713 5.86928C67.483 7.51887 68.7856 10.1481 69.3491 12.2845C67.7432 12.9448 66.2237 13.746 64.8082 14.6567C63.9177 12.9506 61.6014 11.4437 58.7709 12.6104C57.3245 13.2066 56.3666 14.018 55.8486 14.9805C55.3279 15.9478 55.3022 16.9739 55.5434 17.8948C55.7822 18.8063 56.2856 19.6354 56.8666 20.2767C57.1423 20.581 57.4496 20.8584 57.7725 21.0866C57.6347 21.2659 57.4999 21.4461 57.3681 21.6273C56.209 23.2209 55.2025 24.839 54.3523 26.4669ZM58.7241 19.9203C60.1078 18.3196 61.7328 16.8236 63.5564 15.5095C63.0682 14.3588 61.4501 13.1285 59.3426 13.9972C58.1181 14.502 57.4791 15.1161 57.1694 15.6914C56.8624 16.2619 56.8297 16.8857 56.9945 17.5146C57.1617 18.153 57.5289 18.7736 57.9783 19.2696C58.2286 19.5459 58.486 19.7636 58.7241 19.9203ZM79.4758 37.3975C81.5554 37.6286 83.3929 37.9743 85.0146 38.4132C84.1826 41.0122 83.0613 42.4073 81.9554 43.0613C80.7682 43.7633 79.4509 43.6968 78.1947 43.117C76.9245 42.5308 75.7756 41.4389 75.0512 40.2238C74.4195 39.1642 74.1721 38.1233 74.3191 37.3032C75.8786 37.1676 77.5928 37.1883 79.4758 37.3975ZM73.1094 103.901C77.1785 104.086 81.5117 103.699 85.021 102.047C84.6887 104.611 84.4547 109.084 85.2365 113.775C85.5214 115.484 85.7158 116.64 86.0064 117.387C86.1608 117.784 86.3641 118.129 86.6709 118.399C86.9789 118.669 87.3315 118.81 87.6902 118.9C88.0884 118.999 88.522 119.053 89.0434 119.117C90.3756 119.28 92.2806 119.515 95.6296 120.77C97.8537 121.604 99.0667 122.675 99.6653 123.765C100.261 124.849 100.309 126.064 99.9801 127.315C99.3082 129.868 97.1128 132.354 95.4769 133.444C93.883 134.507 90.534 135.511 86.664 135.726C82.8124 135.94 78.6002 135.362 75.2712 133.42C74.1211 132.749 73.1536 131.199 72.4059 128.886C71.6693 126.609 71.1948 123.746 70.9152 120.671C70.3783 114.765 70.5706 108.195 70.9293 103.748C71.6487 103.815 72.3772 103.867 73.1094 103.901ZM58.2652 100.924C59.3089 101.371 61.3358 102.025 63.8977 102.61C62.4091 106.091 60.0693 111.091 57.4515 115.795C56.0232 118.362 54.5182 120.829 53.0291 122.91C51.5323 125 50.0833 126.654 48.7757 127.635C45.583 130.03 40.5057 129.837 35.5358 128.18C30.5892 126.531 26.0888 123.541 24.1734 120.805C22.3439 118.191 22.8764 115.657 24.3395 114.003C25.8457 112.3 28.2617 111.592 30.2236 112.573C32.7059 113.814 34.5358 113.861 36.2334 113.182C37.0452 112.857 37.7952 112.379 38.536 111.86C38.8261 111.657 39.1086 111.452 39.3949 111.245C39.8665 110.904 40.3488 110.554 40.8917 110.193C41.7294 109.634 42.5869 108.556 43.4069 107.294C44.2437 106.006 45.1004 104.432 45.9164 102.785C47.29 100.013 48.5678 96.9959 49.4636 94.7086C52.4139 98.0728 56.1075 99.9994 58.2652 100.924Z" fill="white"></path> </svg> 