<?xml version="1.0" encoding="UTF-8"?> <svg xmlns="http://www.w3.org/2000/svg" width="456" height="264" viewBox="0 0 456 264" fill="none"> <path fill-rule="evenodd" clip-rule="evenodd" d="M42.2957 149.567C35.2962 162.143 32.9185 174.496 35.9821 185.929C39.0456 197.362 47.2809 206.871 59.6309 214.263C71.9837 221.656 88.4255 226.913 107.827 229.841C146.628 235.695 197.167 232.218 250.239 217.998C303.31 203.777 348.817 181.519 379.492 157.048C394.831 144.812 406.441 132.038 413.442 119.459C420.442 106.883 422.819 94.5303 419.756 83.097C416.692 71.6637 408.457 62.1552 396.107 54.7634C383.754 47.3699 367.312 42.1128 347.911 39.1853C309.11 33.3306 258.57 36.8081 205.499 51.0285C152.428 65.2488 106.921 87.5072 76.2455 111.978C60.9073 124.214 49.2968 136.988 42.2957 149.567ZM75.6219 111.196C106.428 86.621 152.069 64.3099 205.241 50.0625C258.412 35.8152 309.094 32.3168 348.06 38.1965C367.543 41.1363 384.121 46.424 396.621 53.9054C409.123 61.3884 417.572 71.0845 420.722 82.8382C423.871 94.5919 421.402 107.214 414.316 119.945C407.232 132.674 395.518 145.543 380.116 157.83C349.31 182.405 303.669 204.716 250.497 218.963C197.326 233.211 146.644 236.709 107.678 230.829C88.1951 227.89 71.6169 222.602 59.1173 215.121C46.6149 207.638 38.1655 197.941 35.0161 186.188C31.8667 174.434 34.336 161.812 41.4219 149.081C48.5062 136.352 60.2195 123.483 75.6219 111.196Z" fill="#AAAAAA"></path> <path d="M99 72C99.189 85.1758 109.824 95.811 123 96C109.824 96.189 99.189 106.824 99 120C98.811 106.824 88.1758 96.189 75 96C88.1758 95.811 98.811 85.1758 99 72Z" fill="#F5F5F5"></path> <path fill-rule="evenodd" clip-rule="evenodd" d="M79.6437 96.0003C89.365 97.9836 97.0169 105.635 99.0001 115.357C100.983 105.635 108.635 97.9836 118.356 96.0003C108.635 94.0171 100.983 86.3652 99.0001 76.644C97.0169 86.3652 89.365 94.0171 79.6437 96.0003ZM99.0001 72.0003L98.5001 71.9932C98.315 84.8984 87.8981 95.3153 74.9929 95.5004L75.0001 96.0003L74.9929 96.5003C87.8981 96.6854 98.315 107.102 98.5001 120.008L99.0001 120L99.5 120.008C99.6852 107.102 110.102 96.6854 123.007 96.5003L123 96.0003L123.007 95.5004C110.102 95.3153 99.6852 84.8984 99.5 71.9932L99.0001 72.0003Z" fill="#AAAAAA"></path> </svg> 