<?xml version="1.0" encoding="UTF-8"?> <svg xmlns="http://www.w3.org/2000/svg" width="140" height="140" viewBox="0 0 140 140" fill="none"> <path fill-rule="evenodd" clip-rule="evenodd" d="M39.7885 7.98699C40.4921 8.28428 41.1869 8.75073 41.7806 9.196C42.2784 9.56937 43.4469 10.6451 45.0136 12.1699C46.5915 13.7057 48.5984 15.7221 50.7868 17.9994C55.9214 23.3426 62.0753 30.1436 66.0275 35.5508C67.1221 37.0483 68.0538 38.4471 68.7497 39.6842C71.1044 43.8704 77.0769 55.7602 83.3693 68.2872C84.1117 69.7651 84.8585 71.252 85.6044 72.736C92.6852 86.8247 99.6711 100.65 101.99 104.417C104.332 108.223 105.143 110.535 104.905 112.753C104.787 113.851 104.416 114.892 103.908 116.038C103.654 116.61 103.362 117.217 103.047 117.873L103.043 117.88C102.725 118.541 102.381 119.256 102.019 120.053C100.482 123.434 96.5446 126.123 92.5933 128.026C88.6186 129.939 84.486 131.124 82.3846 131.424C81.1302 131.604 79.8124 130.845 78.6245 129.823C77.4079 128.776 76.1975 127.338 75.1314 125.905C74.0624 124.467 73.1242 123.014 72.4541 121.921C72.1188 121.375 71.8499 120.917 71.6646 120.596C71.5719 120.435 71.5 120.309 71.4512 120.222C71.4335 120.191 71.4188 120.164 71.4073 120.144L71.3955 120.122L71.3814 120.097L71.3778 120.091L71.3773 120.09L71.3635 120.066L71.0942 119.606C70.9092 119.29 70.6425 118.834 70.3158 118.275C69.6624 117.157 68.769 115.625 67.8087 113.972C65.8893 110.668 63.6986 106.871 62.6258 104.92L62.6199 104.909L62.6144 104.898C51.5322 82.1492 42.1778 59.361 40.4141 52.8941C39.1618 48.3024 37.6282 35.5295 36.6343 25.3946C36.223 21.2011 35.9026 17.4432 35.7317 14.8793C35.5844 12.6691 35.6905 11.074 35.9942 9.95698C36.2986 8.83746 36.8267 8.11905 37.5761 7.81926C38.3043 7.52799 39.0949 7.69391 39.7885 7.98699ZM72.1281 119.393C74.2437 119.738 77.6266 119.655 81.6307 118.489C67.1697 92.9782 54.3597 62.177 48.9005 47.7366C48.5169 49.1916 47.5698 50.3176 46.4271 51.1535C44.8984 52.2719 42.9965 52.8964 41.5316 53.1672C43.6063 60.1916 52.7191 82.3011 63.508 104.449C64.5762 106.391 66.756 110.169 68.6734 113.47C69.6332 115.122 70.5262 116.653 71.1792 117.771C71.5058 118.33 71.7723 118.785 71.9572 119.101L72.1281 119.393ZM41.2664 52.199C42.6355 51.9567 44.4314 51.3745 45.8367 50.3465C47.3736 49.2221 48.4116 47.5989 47.9879 45.2686L47.773 44.0864L48.7631 44.7672C50.2775 45.8083 52.5276 46.7406 54.4508 46.3657C55.3886 46.1829 56.2676 45.6871 56.9764 44.6969C57.6937 43.6948 58.2543 42.1602 58.4823 39.8796L58.555 39.1527L59.2063 39.4835C59.8465 39.8087 60.6278 40.1161 61.4168 40.2968C62.2118 40.4789 62.9753 40.5234 63.6011 40.3635C64.2049 40.2093 64.6865 39.8661 64.9778 39.2248C65.2734 38.5739 65.3955 37.5654 65.1501 36.0452C61.3311 30.8387 55.4557 24.3208 50.4373 19.0797C46.1349 23.7183 40.4863 25.4376 37.6783 25.7922C38.6451 35.5605 40.0816 47.4517 41.2664 52.199ZM37.5806 24.7967C40.2184 24.4579 45.6402 22.8075 49.7433 18.3573C47.6874 16.2245 45.8075 14.3381 44.3161 12.8865C42.7358 11.3483 41.6164 10.3229 41.1806 9.996C40.6076 9.56627 39.9899 9.15772 39.3993 8.90813C38.7986 8.65433 38.3131 8.6015 37.9475 8.74773C37.6033 8.88544 37.2198 9.26079 36.9592 10.2194C36.6978 11.1805 36.5852 12.6479 36.7295 14.8127C36.8927 17.2604 37.1935 20.8112 37.5806 24.7967ZM66.2806 37.6373C66.2696 38.4329 66.1348 39.0956 65.8882 39.6383C65.457 40.5878 64.7102 41.1123 63.8486 41.3324C63.0088 41.5469 62.0697 41.4723 61.1935 41.2716C60.787 41.1785 60.3855 41.0563 60.0023 40.9168C67.6156 56.9339 84.2354 91.3597 94.7149 111.214C96.8197 109.408 98.9215 107.239 100.958 104.644C98.4473 100.447 91.6033 86.8988 84.7109 73.1851C83.9666 71.7042 83.2217 70.2212 82.4814 68.7475C76.1819 56.2065 70.2204 44.3384 67.8781 40.1745C67.4411 39.3974 66.9027 38.5464 66.2806 37.6373ZM101.511 105.557C99.3525 108.267 97.12 110.519 94.8831 112.382C86.192 119.618 77.4444 120.965 72.7568 120.484C72.9099 120.744 73.0947 121.053 73.3065 121.398C73.9672 122.475 74.8884 123.902 75.9339 125.308C76.9824 126.718 78.1418 128.088 79.2768 129.065C80.4404 130.066 81.4559 130.547 82.2432 130.434C84.2252 130.151 88.2593 129.003 92.1595 127.125C96.0833 125.235 99.7288 122.675 101.109 119.639C101.476 118.831 101.824 118.107 102.142 117.446C102.461 116.784 102.747 116.19 102.994 115.633C103.488 114.519 103.809 113.591 103.911 112.647C104.099 110.886 103.532 108.948 101.511 105.557ZM93.9306 111.871C83.5083 92.143 66.9342 57.8235 59.2355 41.633C58.9274 43.1864 58.431 44.3829 57.7895 45.279C56.9282 46.4824 55.8238 47.1168 54.6422 47.3472C52.8628 47.694 50.955 47.1192 49.4423 46.3363C54.6594 60.29 67.7772 92.0639 82.6087 118.186C86.1025 117.04 90.0097 115.07 93.9306 111.871Z" fill="white"></path> </svg> 