<svg width="140" height="140" viewBox="0 0 140 140" fill="none" xmlns="http://www.w3.org/2000/svg">
<g id="science-icon-2 1" opacity="0.25">
<path id="Vector" fill-rule="evenodd" clip-rule="evenodd" d="M69.9282 33.8644C70.9378 31.9228 73.7782 32.1237 74.5045 34.188L82.0456 55.6206C82.2407 56.1751 82.7417 56.5645 83.3272 56.6168L104.108 58.4722C106.496 58.6855 107.244 61.8123 105.21 63.0826L86.874 74.5375C86.2808 74.9081 86.0225 75.6394 86.2512 76.3003L94.531 100.224C95.3142 102.487 92.7743 104.45 90.7817 103.122L69.7384 89.0928C69.271 88.7813 68.6688 88.7569 68.1778 89.0297L47.7493 100.379C45.6174 101.563 43.2247 99.3063 44.2827 97.1089L53.8675 77.202C54.1681 76.5778 54.0021 75.8291 53.4659 75.3904L36.3535 61.3893C34.6418 59.9889 35.4578 57.2191 37.6553 56.9703L58.3866 54.6233C58.8827 54.5672 59.3184 54.2679 59.5487 53.8249L69.9282 33.8644ZM73.5612 34.5199C73.1254 33.2813 71.4212 33.1608 70.8154 34.3258L60.436 54.2862C60.052 55.0245 59.326 55.5234 58.4991 55.617L37.7678 57.9639C36.4493 58.1132 35.9597 59.7751 36.9867 60.6153L54.0991 74.6164C54.9927 75.3476 55.2694 76.5955 54.7685 77.6358L45.1837 97.5427C44.5489 98.8612 45.9845 100.215 47.2637 99.5047L67.6922 88.1555C68.5105 87.7009 69.5142 87.7416 70.2931 88.2608L91.3364 102.29C92.532 103.087 94.0559 101.909 93.586 100.551L85.3062 76.6273C84.925 75.5258 85.3556 74.307 86.3442 73.6894L104.681 62.2345C105.901 61.4723 105.452 59.5962 104.019 59.4683L83.2382 57.6128C82.2624 57.5257 81.4275 56.8766 81.1023 55.9525L73.5612 34.5199Z" fill="white"/>
</g>
</svg>
