<svg width="172" height="172" viewBox="0 0 172 172" fill="none" xmlns="http://www.w3.org/2000/svg">
<g id="science-icon 1" opacity="0.25">
<path id="Vector" fill-rule="evenodd" clip-rule="evenodd" d="M40.4999 33.6513C41.2565 33.7564 42.0484 34.0271 42.7371 34.3035C43.3145 34.5353 44.7216 35.272 46.6296 36.3393C48.5512 37.4144 51.0116 38.8427 53.7149 40.476C60.0574 44.3082 67.7619 49.2847 72.9789 53.4847C74.4238 54.6479 75.6858 55.7579 76.6781 56.7727C80.0361 60.2069 88.8824 70.1457 98.2026 80.6173C99.3022 81.8527 100.408 83.0956 101.513 84.336C111.999 96.112 122.325 107.658 125.54 110.697C128.787 113.767 130.169 115.79 130.513 117.994C130.683 119.085 130.594 120.187 130.4 121.425C130.303 122.043 130.178 122.705 130.044 123.421L130.041 123.428C129.905 124.149 129.758 124.929 129.615 125.792C129.005 129.456 125.898 133.072 122.574 135.933C119.23 138.81 115.545 141.024 113.592 141.858C112.427 142.356 110.958 141.964 109.546 141.284C108.1 140.588 106.559 139.512 105.158 138.404C103.753 137.292 102.471 136.131 101.541 135.249C101.076 134.808 100.697 134.435 100.435 134.173C100.304 134.042 100.202 133.938 100.132 133.867C100.107 133.842 100.086 133.819 100.07 133.803L100.053 133.785L100.033 133.764L100.028 133.76L100.027 133.759L100.007 133.739L99.628 133.364C99.3676 133.107 98.9919 132.736 98.5317 132.28C97.6112 131.37 96.3517 130.121 94.9963 128.773C92.2872 126.078 89.1884 122.978 87.6472 121.371L87.6386 121.362L87.6305 121.352C71.0381 102.247 56.1044 82.6564 52.727 76.8663C50.329 72.7552 45.5418 60.8144 41.9586 51.2821C40.476 47.338 39.1939 43.791 38.3652 41.3587C37.6509 39.262 37.3405 37.6938 37.3448 36.5362C37.3491 35.376 37.6732 34.5454 38.3195 34.0619C38.9475 33.5921 39.7541 33.5477 40.4999 33.6513ZM100.572 132.891C102.704 132.677 105.951 131.721 109.516 129.558C88.9455 108.66 68.6 82.2235 59.5894 69.6881C59.5955 71.1928 58.9721 72.5256 58.0846 73.6288C56.8975 75.1047 55.222 76.2002 53.8771 76.8409C57.6992 83.089 72.2238 102.087 88.3774 120.687C89.9118 122.287 92.9952 125.372 95.7016 128.064C97.0563 129.411 98.3151 130.659 99.2352 131.57C99.6954 132.025 100.071 132.396 100.331 132.653L100.572 132.891ZM53.3704 75.9743C54.6301 75.3859 56.2141 74.3587 57.3055 73.0021C58.499 71.5182 59.0815 69.6816 58.0691 67.5404L57.5556 66.4541L58.6881 66.8555C60.4204 67.4691 62.8351 67.7873 64.5958 66.9274C65.4543 66.5081 66.175 65.8017 66.6034 64.6618C67.0369 63.5082 67.1812 61.8808 66.8112 59.6189L66.6933 58.8979L67.408 59.0489C68.1105 59.1973 68.9448 59.292 69.7537 59.2624C70.5687 59.2325 71.3177 59.0779 71.8808 58.7615C72.4241 58.4562 72.8005 58.0001 72.9159 57.3052C73.0329 56.6 72.8898 55.5943 72.2594 54.1894C67.2229 50.1487 59.8608 45.3736 53.6569 41.6099C50.7016 47.204 45.6905 50.3267 43.07 51.396C46.532 60.5812 50.9973 71.6954 53.3704 75.9743ZM42.7179 50.4597C45.1782 49.4497 49.9881 46.4523 52.7996 41.0918C50.2617 39.5637 47.9576 38.2282 46.1413 37.212C44.2168 36.1353 42.8701 35.4345 42.3646 35.2316C41.6999 34.9648 40.9975 34.73 40.3624 34.6418C39.7165 34.5521 39.2338 34.6267 38.9186 34.8626C38.6217 35.0847 38.3484 35.5465 38.3448 36.5399C38.3411 37.5359 38.6121 38.9825 39.3118 41.0362C40.1029 43.3582 41.3125 46.7102 42.7179 50.4597ZM73.7634 55.4346C73.9587 56.206 74 56.881 73.9023 57.469C73.7315 58.4978 73.1459 59.1977 72.3706 59.6333C71.615 60.0578 70.6886 60.2288 69.7903 60.2617C69.3735 60.277 68.9541 60.2629 68.5478 60.2273C80.0472 73.7282 105.011 102.679 120.272 119.145C121.838 116.856 123.306 114.217 124.602 111.183C121.09 107.779 110.973 96.4636 100.766 85.0011C99.6639 83.7633 98.5606 82.5236 97.4641 81.2917C88.1334 70.8085 79.3033 60.8877 75.9631 57.4719C75.3399 56.8344 74.5996 56.1518 73.7634 55.4346ZM125.372 111.922C123.989 115.098 122.415 117.851 120.737 120.23C114.215 129.468 106.114 133.034 101.461 133.782C101.676 133.994 101.935 134.244 102.229 134.523C103.146 135.392 104.405 136.532 105.779 137.62C107.156 138.71 108.631 139.733 109.98 140.383C111.363 141.049 112.468 141.251 113.2 140.938C115.041 140.152 118.64 137.999 121.922 135.175C125.223 132.334 128.081 128.918 128.629 125.628C128.774 124.752 128.923 123.963 129.059 123.242C129.196 122.52 129.318 121.873 129.413 121.271C129.601 120.067 129.671 119.087 129.526 118.149C129.251 116.399 128.202 114.674 125.372 111.922ZM119.684 119.983C104.511 103.624 79.6193 74.7639 67.9925 61.1176C68.097 62.6978 67.9272 63.982 67.5394 65.0136C67.019 66.3989 66.1164 67.2976 65.0347 67.8259C63.4057 68.6214 61.4141 68.56 59.7503 68.1953C68.4011 80.3233 89.2956 107.619 110.383 129.013C113.461 127.001 116.725 124.087 119.684 119.983Z" fill="white"/>
</g>
</svg>
