<?xml version="1.0" encoding="UTF-8"?> <svg xmlns="http://www.w3.org/2000/svg" width="140" height="140" viewBox="0 0 140 140" fill="none"> <path fill-rule="evenodd" clip-rule="evenodd" d="M48.9142 20.2539C55.4249 20.1375 62.2111 22.6053 68.4461 28.6594C78.3869 38.3119 80.1607 47.9759 78.222 56.1489C77.0798 60.9642 74.6591 65.2225 71.9346 68.6292C80.2562 77.3431 98.6403 95.7591 108.243 102.478C111.302 104.619 113.699 106.323 115.536 107.727C117.366 109.127 118.677 110.258 119.54 111.256C120.407 112.26 120.885 113.201 120.915 114.212C120.944 115.204 120.534 116.118 119.974 117.042C119.381 118.023 118.66 118.755 117.808 119.211C116.951 119.669 116.01 119.822 115.025 119.719C113.092 119.518 110.97 118.332 108.775 116.518C108.279 116.109 107.458 115.455 106.377 114.593C102.811 111.752 96.4111 106.654 89.4997 100.625C80.5668 92.8319 70.6908 83.4109 64.8558 75.1682C58.1814 79.0406 50.2795 81.0746 42.6542 79.6041C34.4875 78.0293 26.7697 72.4599 21.2903 61.1336C15.7029 49.5842 21.323 35.4022 31.2716 27.1839C36.2691 23.0556 42.4196 20.37 48.9142 20.2539ZM66.1425 74.3895C71.8733 82.453 81.5912 91.7349 90.4858 99.4942C97.3636 105.494 103.697 110.54 107.275 113.391C108.376 114.267 109.215 114.936 109.73 115.362C111.855 117.117 113.694 118.072 115.18 118.227C115.905 118.303 116.539 118.188 117.1 117.888C117.665 117.586 118.204 117.069 118.691 116.265C119.211 115.406 119.431 114.802 119.415 114.256C119.4 113.728 119.158 113.108 118.405 112.237C117.648 111.362 116.44 110.307 114.624 108.919C112.816 107.536 110.443 105.849 107.383 103.707C97.6829 96.9199 79.3251 78.532 70.968 69.7888C69.3912 71.6045 67.7534 73.1355 66.2321 74.3284L66.2021 74.3519L66.1699 74.3722C66.1608 74.378 66.1517 74.3838 66.1425 74.3895ZM65.337 73.1241C69.6685 69.7178 74.9438 63.4699 76.7625 55.8027C78.57 48.1828 76.9926 39.0488 67.4012 29.7356C61.4285 23.9361 55.0196 21.645 48.941 21.7537C42.8464 21.8626 37.0136 24.3862 32.2269 28.3403C22.6072 36.2869 17.4559 49.7633 22.6406 60.4804C27.9495 71.4542 35.3113 76.6605 42.9382 78.1313C48.3734 79.1794 54.0097 78.3431 59.2213 76.2556C56.0505 76.3282 52.5735 75.5933 49.2914 74.14C43.2603 71.4696 37.689 66.2962 35.6061 58.8545C33.053 49.7326 34.4589 40.9854 38.738 36.324C40.9013 33.9673 43.7928 32.6733 47.1947 32.9518C50.5684 33.228 54.353 35.042 58.3759 38.7007C63.0014 42.9075 63.9852 46.7222 62.663 49.7894C61.3906 52.7409 58.1127 54.6375 55.034 55.3896C53.4763 55.7701 51.8979 55.8777 50.5511 55.6541C49.2218 55.4334 47.9891 54.8635 47.3423 53.7643C46.6797 52.6382 46.7707 51.1999 47.5592 49.5712C48.347 47.9441 49.8799 46.0082 52.3349 43.7341L53.3542 44.8346C50.9621 47.0505 49.5808 48.8379 48.9093 50.2249C48.2386 51.6103 48.3252 52.4768 48.6351 53.0036C48.961 53.5574 49.6777 53.9886 50.7968 54.1744C51.8985 54.3573 53.2674 54.277 54.678 53.9324C57.5358 53.2343 60.2782 51.5323 61.2855 49.1956C62.243 46.9746 61.7662 43.8117 57.3666 39.8104C53.4904 36.2851 50.0043 34.6868 47.0723 34.4468C44.1684 34.209 41.719 35.2947 39.843 37.3383C36.0435 41.4774 34.577 49.6126 37.0506 58.4502C38.9891 65.376 44.1892 70.2404 49.8987 72.7684C55.6294 75.3059 61.678 75.413 65.337 73.1241Z" fill="white"></path> </svg> 