<svg width="275" height="120" viewBox="0 0 275 120" fill="none" xmlns="http://www.w3.org/2000/svg">
<path fill-rule="evenodd" clip-rule="evenodd" d="M247.709 8.7927C250.094 9.9623 252.292 12.0314 253.763 14.279C255.053 16.2481 255.853 18.0562 256.274 20.0753C256.69 22.0646 256.71 24.1279 256.599 26.5112C256.558 27.4146 255.98 28.1012 255.31 28.0448C254.639 27.9884 254.13 27.2102 254.173 26.3068C254.278 24.0286 254.236 22.4112 253.934 20.9641C253.638 19.5467 253.063 18.1629 251.941 16.448C250.742 14.6172 248.887 12.8583 246.878 11.8734C244.862 10.8851 242.858 10.7497 241.237 11.8001C238.616 13.4988 237.521 17.388 237.436 22.225C237.353 27.0047 238.287 32.1632 239.256 35.4441C243.584 50.1064 252.104 62.8554 262.052 71.1214C262.624 71.5962 262.801 72.606 262.448 73.3764C262.096 74.1467 261.347 74.3877 260.776 73.9123C250.438 65.322 241.541 52.0502 236.997 36.6563C235.935 33.0602 234.913 27.46 235.006 22.148C235.097 16.8933 236.309 11.3574 240.183 8.8458C242.599 7.28055 245.33 7.62638 247.709 8.7927Z" fill="#333333"/>
<path fill-rule="evenodd" clip-rule="evenodd" d="M263.2 3.931C260.409 5.12601 257.765 7.67007 256.674 9.73834C255.589 11.7986 255.015 14.9342 254.989 18.2923C254.965 21.6366 255.488 24.9303 256.386 27.2058C256.702 28.0048 256.477 28.9973 255.885 29.4228C255.292 29.8483 254.555 29.5454 254.241 28.7464C253.105 25.8719 252.53 22.005 252.558 18.2597C252.586 14.5282 253.213 10.645 254.693 7.83938C256.156 5.06274 259.294 2.16382 262.464 0.806724C265.586 -0.529724 269.427 -0.60545 271.535 3.72203C274.698 10.2155 275.072 18.1787 274.253 25.8703C273.434 33.5784 271.395 41.2445 269.532 47.3484C268.513 50.6828 267.283 53.9977 266.072 57.2573C265.8 57.9883 265.53 58.7167 265.263 59.4418C263.793 63.4356 262.422 67.3648 261.483 71.3492C261.28 72.2123 260.597 72.6892 259.958 72.4155C259.317 72.1418 258.963 71.2204 259.166 70.3576C260.166 66.1145 261.61 61.9921 263.085 57.9847C263.361 57.2344 263.637 56.4889 263.913 55.7473C265.122 52.4935 266.303 49.3122 267.283 46.1007C269.122 40.0761 271.071 32.7079 271.846 25.4051C272.626 18.0861 272.203 11.0623 269.503 5.52149C268.338 3.13002 266.039 2.71551 263.2 3.931Z" fill="#333333"/>
<path d="M1 111.352C1 116.595 3.34767 119 8.38798 119C15.9544 119 18.3787 106.307 20.1803 100.162C25.0152 83.6731 22.7377 64.7252 22.7377 47.6153C22.7377 39.9199 25.2951 62.8649 25.2951 70.5604C25.2951 77.4079 24.1712 85.3773 26.2896 91.9475C28.2314 97.9698 33.354 112.045 42.5574 110.006C49.0108 108.576 52.5641 88.6204 53.2842 83.2368C53.9814 78.0236 55.5249 72.7324 55.9126 67.5152C56.2443 63.051 55.3116 58.32 56.694 53.9889C58.0396 49.773 59.465 37.0574 58.4699 48.9608C57.82 56.7357 59.0829 67.5941 56.623 74.9511C55.0764 79.5763 50.9343 106.253 59.2514 106.253C72.1961 106.253 74.8548 103.353 79 90.956" stroke="#333333" stroke-width="2" stroke-linecap="round"/>
<path d="M93.4489 74.549C88.0653 74.549 87.2986 88.7362 88.4789 92.9017C91.2108 102.544 106.167 92.655 108.569 88.8077C119.812 70.8004 88.4089 66.4093 88.4089 75.8195" stroke="#333333" stroke-width="2" stroke-linecap="round"/>
<path d="M115.71 72C115.71 77.4718 112.873 83.217 114.507 88.8356C115.239 91.3544 129.271 89.1289 131 88.2791" stroke="#333333" stroke-width="2" stroke-linecap="round"/>
<path d="M142.533 64.9896C142.533 72.2081 140 78.7276 140 85.8866C140 91.922 140 83.3006 140 81.4539C140 77.6591 140.689 74.8753 141.196 71.322C141.863 66.6537 149.711 61.1601 154.496 62.527C159.276 63.8924 157.733 75.6784 157.733 78.9209C157.733 91.344 156.47 74.5831 158.015 71.322C160.256 66.5917 164.447 62.5479 169.133 60.2051C173.093 58.2255 171.667 71.1602 171.667 73.855C171.667 80.3703 171.199 81.4539 178 81.4539" stroke="#333333" stroke-width="2" stroke-linecap="round"/>
<path d="M189.558 52C189.558 60.2776 187 68.431 187 76.96C187 81.8455 197.151 77.9206 199.15 76.32C200.561 75.1906 199.79 70.9745 199.79 69.28C199.79 66.3641 195.593 67.2378 193.395 67.36C187.182 67.7055 188.279 80.1648 188.279 84" stroke="#333333" stroke-width="2" stroke-linecap="round"/>
</svg>
