<svg width="261" height="81" viewBox="0 0 261 81" fill="none" xmlns="http://www.w3.org/2000/svg">
<path d="M3.19762 42.8164C3.19762 51.0508 10.5958 64.5927 15.7312 71.0487C20.5442 77.0992 34.2796 81.8245 41.3049 77.9485C53.6641 71.1296 50.0825 51.038 49.9138 39.3981C49.7691 29.4124 43.8309 16.3835 34.595 11.5456C29.3273 8.78639 24.456 8.63379 18.6431 8.63379C12.2559 8.63379 10.2059 10.7409 5.72966 15.2171C-0.75571 21.7025 -0.675857 50.4889 6.61588 55.35" stroke="#333333" stroke-width="2" stroke-linecap="round"/>
<path d="M57.8898 51.9316C61.2998 56.1942 61.308 63.8468 61.308 69.0229C61.308 77.3729 61.308 66.9297 61.308 64.2121C61.308 58.0451 59.9476 51.0132 64.7263 46.2345C68.6612 42.2996 74.3594 43.946 77.0067 48.2602C79.0987 51.6694 80.6782 63.7868 80.6782 63.7056C80.6782 57.292 79.1515 49.7057 82.957 44.2089C92.1042 30.9963 95.8846 58.2196 97.7695 61.047" stroke="#333333" stroke-width="2" stroke-linecap="round"/>
<path d="M108.024 40.5372C114.754 40.5372 124.182 38.6926 121.634 29.7761C120.172 24.6597 108.3 34.2417 107.391 35.4099C102.917 41.1629 106.316 51.0772 112.582 54.2103C116.245 56.0419 121.13 55.4574 125.116 55.3497C132.203 55.1582 135.057 48.9311 138.789 43.9555" stroke="#333333" stroke-width="2" stroke-linecap="round"/>
<path d="M142.207 22.3071C142.207 30.5318 140.918 42.5409 147.398 49.0201C157.65 59.2727 162.716 38.4597 162.716 31.9288C162.716 28.806 162.716 25.6831 162.716 22.5603C162.716 18.8255 162.716 30.0298 162.716 33.7646C162.716 39.255 161.671 48.9516 169.553 48.5137C175.098 48.2057 174.111 32.3405 174.111 39.3984C174.111 45.4549 175.029 51.9808 171.832 57.3759C171.185 58.4671 166.135 69.1516 166.135 61.5538C166.135 55.5366 174.111 55.6935 174.111 51.932" stroke="#333333" stroke-width="2" stroke-linecap="round"/>
<path d="M62.4474 32.5623C62.7753 29.9394 69.6367 30.2835 71.4995 30.2835C75.9234 30.2835 78.206 30.9855 80.6782 26.8652" stroke="#333333" stroke-width="2" stroke-linecap="round"/>
<path fill-rule="evenodd" clip-rule="evenodd" d="M227.659 1.85879C228.178 1.67175 228.752 1.94131 228.938 2.46109C229.005 2.64583 229.074 2.83234 229.142 3.02086C229.889 5.06503 230.715 7.3282 230.375 9.83803C230.101 11.8481 229.558 13.7932 229.029 15.6533C229.001 15.7497 228.974 15.8462 228.946 15.943C227.958 19.4208 226.876 23.2307 224.527 26.3434C222.788 28.6488 220.477 30.0878 218.033 31.112C215.967 31.9779 213.745 32.5695 211.664 33.1239C211.304 33.2197 210.949 33.3143 210.599 33.409C210.066 33.5535 209.517 33.2385 209.372 32.7053C209.228 32.1722 209.543 31.623 210.076 31.4786C210.442 31.3796 210.808 31.2819 211.173 31.1845C213.261 30.628 215.33 30.0759 217.26 29.2674C219.506 28.3259 221.476 27.0678 222.931 25.1391C225.05 22.3286 226.044 18.8347 227.065 15.2441L227.105 15.106C227.638 13.2331 228.142 11.4181 228.392 9.56909C228.664 7.57192 228.01 5.76786 227.237 3.63476C227.177 3.47131 227.117 3.30592 227.057 3.13834C226.87 2.61866 227.139 2.04584 227.659 1.85879Z" fill="#333333"/>
<path fill-rule="evenodd" clip-rule="evenodd" d="M243.872 29.5818C247.205 24.9823 252.297 23.1527 257.188 21.8274C257.721 21.6829 258.27 21.998 258.415 22.5311C258.559 23.0641 258.244 23.6134 257.711 23.7578C252.863 25.0714 248.387 26.7599 245.493 30.755C243.163 33.9709 241.936 38.2986 241.663 42.377C241.539 44.2258 241.494 46.0789 241.785 47.8165C241.799 47.9043 241.829 48.03 241.875 48.2267C241.918 48.4064 241.97 48.6289 242.012 48.8545C242.052 49.0768 242.09 49.3379 242.091 49.5973C242.091 49.8379 242.063 50.1946 241.877 50.529C241.608 51.0114 240.999 51.1844 240.517 50.9155C240.06 50.6614 239.882 50.1032 240.09 49.6354C240.091 49.6271 240.091 49.617 240.09 49.6048C240.091 49.5159 240.076 49.3869 240.045 49.2152C240.014 49.0469 239.973 48.8717 239.929 48.6876C239.926 48.6762 239.924 48.6647 239.921 48.653C239.883 48.4928 239.838 48.3047 239.812 48.1461C239.482 46.1703 239.541 44.1267 239.668 42.243C239.958 37.9083 241.262 33.1855 243.872 29.5818Z" fill="#333333"/>
<path fill-rule="evenodd" clip-rule="evenodd" d="M208.665 33.9244C208.529 33.3892 208.852 32.8448 209.388 32.708C212.668 31.8703 216.264 32.3076 219.33 32.7092C221.533 32.9977 223.623 33.4107 225.766 34.1813C228.184 35.0517 230.263 36.6083 232.097 38.0996C235.632 40.9739 238.434 44.198 240.68 48.1502C240.782 48.3273 240.903 48.5303 241.036 48.7517C241.398 49.3516 241.84 50.0871 242.16 50.8111C242.605 51.8244 242.947 53.0884 242.506 54.3633C242.325 54.8852 241.755 55.1617 241.234 54.9808C240.711 54.8 240.435 54.2304 240.616 53.7086C240.809 53.1481 240.703 52.4662 240.329 51.6174C240.064 51.0163 239.733 50.4653 239.394 49.9047C239.244 49.6532 239.091 49.3996 238.942 49.1388C236.826 45.4169 234.192 42.3801 230.836 39.6514C229.02 38.1745 227.165 36.8102 225.089 36.0632C223.128 35.3578 221.19 34.9698 219.071 34.6922C215.948 34.2832 212.732 33.9182 209.882 34.6458C209.347 34.7826 208.803 34.4595 208.665 33.9244Z" fill="#333333"/>
<path fill-rule="evenodd" clip-rule="evenodd" d="M228.198 2.7459C228.731 2.60149 229.28 2.91654 229.424 3.44955C229.532 3.84725 229.639 4.24691 229.745 4.64733C230.392 7.07169 231.044 9.52075 232.013 11.685C233.365 14.7046 234.616 17.4174 237.062 19.1996C239.185 20.7465 241.765 21.9355 244.293 22.3828C244.685 22.452 245.086 22.5427 245.458 22.6264C245.61 22.661 245.757 22.6943 245.898 22.7245C246.402 22.8338 246.863 22.9171 247.321 22.9424C247.968 22.9781 248.614 23.0203 249.255 23.0623L249.324 23.0668C249.943 23.1074 250.557 23.1476 251.17 23.1824C252.035 23.2314 252.913 23.168 253.866 23.0989L253.874 23.0983C254.803 23.031 255.805 22.9582 256.811 23.0215C257.362 23.0562 257.781 23.5311 257.746 24.0823C257.711 24.6336 257.236 25.0523 256.685 25.0176C255.834 24.964 254.963 25.0246 254.011 25.0936L253.959 25.0974C253.045 25.1637 252.054 25.2357 251.057 25.1791C250.435 25.1439 249.813 25.1031 249.196 25.0627L249.124 25.058C248.482 25.016 247.846 24.9745 247.211 24.9393C246.593 24.9052 246.01 24.7952 245.475 24.6793C245.296 24.6406 245.126 24.6024 244.963 24.5653C244.614 24.4864 244.289 24.413 243.945 24.3523C241.073 23.8442 238.214 22.514 235.884 20.816C232.955 18.6819 231.518 15.4738 230.209 12.5483L230.188 12.5023C229.147 10.1781 228.448 7.55161 227.806 5.13768C227.701 4.74289 227.598 4.35372 227.494 3.97261C227.35 3.4396 227.664 2.89041 228.198 2.7459Z" fill="#333333"/>
</svg>
